<svg aria-hidden="true" style="position: absolute; width: 0; height: 0; overflow: hidden;" version="1.1" xmlns="http://www.w3.org/2000/svg" xmlns:xlink="http://www.w3.org/1999/xlink">
<defs>
<symbol id="icon-ui-close" viewBox="0 0 32 32">
<path d="M25.313 8.563l-7.438 7.438 7.438 7.438-1.875 1.875-7.438-7.438-7.438 7.438-1.875-1.875 7.438-7.438-7.438-7.438 1.875-1.875 7.438 7.438 7.438-7.438z"></path>
</symbol>
<symbol id="icon-ui-burger" viewBox="0 0 32 32">
<path d="M4 8h24v2.688h-24v-2.688zM4 17.313v-2.625h24v2.625h-24zM4 24v-2.688h24v2.688h-24z"></path>
</symbol>
<symbol id="icon-ui-email" viewBox="0 0 32 32">
<path d="M23.373 19.475c0 1.344 0.382 1.88 1.382 1.88 2.229 0 3.648-2.84 3.648-7.563 0-7.219-5.261-10.675-11.829-10.675-6.757 0-12.902 4.531-12.902 13.094 0 8.179 5.376 12.634 13.632 12.634 2.803 0 4.685-0.307 7.563-1.267l0.618 2.571c-2.842 0.923-5.878 1.19-8.219 1.19-10.829 0-16.629-5.952-16.629-15.13 0-9.254 6.722-15.552 15.976-15.552 9.638 0 14.744 5.76 14.744 12.826 0 5.99-1.88 10.56-7.794 10.56-2.69 0-4.454-1.075-4.685-3.458-0.691 2.65-2.534 3.458-5.032 3.458-3.341 0-6.144-2.574-6.144-7.757 0-5.222 2.459-8.448 6.875-8.448 2.342 0 3.802 0.922 4.451 2.381l1.115-2.035h3.226v11.291h0.003zM18.651 14.406c0-2.11-1.576-2.995-2.882-2.995-1.421 0-2.994 1.15-2.994 4.531 0 2.688 1.19 4.186 2.994 4.186 1.267 0 2.882-0.806 2.882-3.034v-2.688z"></path>
</symbol>
<symbol id="icon-ui-mobile" viewBox="0 0 32 32">
<path d="M18.56 1.28q0.8 0.020 1.36 0.56 0.54 0.56 0.56 1.36v26.88q-0.020 0.8-0.56 1.36-0.56 0.54-1.36 0.56h-15.36q-0.8-0.020-1.36-0.56-0.54-0.56-0.56-1.36v-26.88q0.020-0.8 0.56-1.36 0.56-0.54 1.36-0.56h15.36zM9.92 3.2q-0.4 0-0.68 0.28t-0.28 0.68 0.28 0.68 0.68 0.28h1.92q0.4 0 0.68-0.28t0.28-0.68-0.28-0.68-0.68-0.28h-1.92zM11.84 30.080q0.4 0 0.68-0.28t0.28-0.68-0.28-0.68-0.68-0.28h-1.92q-0.4 0-0.68 0.28t-0.28 0.68 0.28 0.68 0.68 0.28h1.92zM18.56 26.24v-19.2h-15.36v19.2h15.36zM27.72 9.4q3 3.16 3 7.24t-3 7.24q-0.4 0.36-0.9 0.36-0.52 0-0.9-0.38-0.4-0.4-0.4-0.88 0-0.5 0.4-0.9 2.24-2.36 2.24-5.44t-2.24-5.44q-0.4-0.4-0.4-0.9 0-0.48 0.4-0.88 0.38-0.38 0.9-0.38 0.5 0 0.9 0.36zM24.12 13q1.48 1.6 1.48 3.64t-1.48 3.64q-0.4 0.36-0.92 0.36t-0.9-0.38-0.38-0.9 0.36-0.92q0.76-0.76 0.76-1.8t-0.76-1.8q-0.36-0.38-0.36-0.92 0-0.52 0.38-0.9t0.9-0.38 0.92 0.36z"></path>
</symbol>
</defs>
</svg>
